<svg id="Ñëîé_1" data-name="Ñëîé 1" xmlns="http://www.w3.org/2000/svg" viewBox="0 0 603.48 545.7"><defs><style>.cls-1{fill:#ce523a;}.cls-2{fill:#f4f1e6;}.cls-3{fill:#6c8fc9;}.cls-4{fill:#633750;}.cls-5{fill:#5a6092;}.cls-6{fill:#add9e2;}.cls-7{fill:#e87654;}.cls-8{fill:#edb373;}.cls-9{fill:#4e5684;}.cls-10{fill:#fabb78;}.cls-11{fill:#ed9176;}</style></defs><title>Vector Smart Object3</title><path class="cls-1" d="M728.25,360.08c8,.2,26.47,8.41,29.8,17.38,3,8.05,9.49,11,16.79,11.67,6.68.62,19.62,2.08,28.19,16.66-.68,3.24-10.28,14.54-10.75,15.13,0,0,0,0,0,0-4.23-7.66-9.08-16-19.74-16.75-7.34-.55-16.48-3.61-24-14.51S724,371.52,724,371.52,720.23,359.88,728.25,360.08Z" transform="translate(-375.83 -285.22)"/><rect class="cls-2" x="486.23" y="618.31" width="2.18" height="202.25" transform="translate(-522.17 -160.39) rotate(-12.71)"/><rect class="cls-2" x="386.19" y="718.35" width="202.25" height="2.18" transform="translate(-522.59 -159.94) rotate(-12.75)"/><rect class="cls-2" x="386.19" y="718.35" width="202.26" height="2.17" transform="translate(-757.01 462.44) rotate(-57.75)"/><rect class="cls-2" x="486.23" y="618.31" width="2.18" height="202.25" transform="translate(-756.99 463.05) rotate(-57.79)"/><rect class="cls-2" x="866.74" y="618.31" width="2.18" height="202.25" transform="translate(-624.68 280.1) rotate(-31.8)"/><rect class="cls-2" x="766.7" y="718.35" width="202.25" height="2.17" transform="translate(-624.57 279.25) rotate(-31.76)"/><rect class="cls-2" x="766.7" y="718.35" width="202.25" height="2.18" transform="translate(-407.11 1114.17) rotate(-76.76)"/><rect class="cls-2" x="866.74" y="618.31" width="2.18" height="202.25" transform="translate(-406.91 1114.43) rotate(-76.77)"/><path class="cls-3" d="M387.44,719.44a99.88,99.88,0,1,0,99.88-99.88A100,100,0,0,0,387.44,719.44Zm8.11,0a91.77,91.77,0,1,1,91.77,91.77A91.87,91.87,0,0,1,395.55,719.44Z" transform="translate(-375.83 -285.22)"/><path class="cls-3" d="M487.32,704.59a14.85,14.85,0,1,1-14.85,14.85A14.84,14.84,0,0,1,487.32,704.59Z" transform="translate(-375.83 -285.22)"/><path class="cls-4" d="M375.83,719.44A111.49,111.49,0,1,0,487.32,608,111.61,111.61,0,0,0,375.83,719.44Zm11.91,0A99.58,99.58,0,1,1,487.32,819,99.69,99.69,0,0,1,387.74,719.44Z" transform="translate(-375.83 -285.22)"/><path class="cls-4" d="M487.32,710.24a9.2,9.2,0,1,1-9.21,9.2A9.2,9.2,0,0,1,487.32,710.24Z" transform="translate(-375.83 -285.22)"/><path class="cls-5" d="M551,621.28c16.45-46.83,29.2-127.72,29.33-128.53l8.83,1.37c-.13.82-13,82.52-29.73,130.12-17.89,50.93-56.57,87.82-68.15,98a4.48,4.48,0,0,1-5.92-6.73C496.19,705.87,534,669.69,551,621.28Z" transform="translate(-375.83 -285.22)"/><path class="cls-5" d="M747.86,751.19a35.79,35.79,0,0,1-.16-4.51c.43-3.12,3.48-6.24,6.81-5.32a6.69,6.69,0,0,1,3.76,3.17,13.35,13.35,0,0,1,.65,11.65,19.55,19.55,0,0,1-7.82,9,1.86,1.86,0,0,1-1.3.41,1.66,1.66,0,0,1-.7-.38,8,8,0,0,1-2.72-7.88C746.88,755.18,747.83,753.42,747.86,751.19Z" transform="translate(-375.83 -285.22)"/><path class="cls-3" d="M746.87,727.66c1.36-.25,1.81-1.82,4.38.15,3.47,2.66,4.08,15.14,2.74,20.07-1.51,5.55.23,6.93,1.31,13.25,1.29,7.47-5.65,20.18-10.85,25.21-4.1,4-6.58,5.95-10.55,7.36-2.93,1-2.95-.07-5-.88,12.89-30.71,12.5-31.34,16-63.39C746,729.07,745.52,727.9,746.87,727.66Z" transform="translate(-375.83 -285.22)"/><polygon class="cls-6" points="348.25 503.1 348.25 503.1 348.25 503.1 348.25 503.1"/><path class="cls-7" d="M724.58,787.43c1.38-5.48,4.25-10.7,6.3-15.94,0,0,0-.11,0-.12,0-5-3.09-8.67-4.4-13.23s-4.94-5.54,4.81-11.72c5.74-3.64,3.82-9.67-1.83-16.17-.14-.16,10-5.09,17.24-2.53,1.84,4.89,1.32,15.89,1.77,20.32.88,8.58,3.33,14.44,1.34,21.85-1.69,6.27-8.36,13.34-11.4,16.4-4.48,4.49-5.07,4.33-9.57,6.57-2.92-1.65-5-3.46-4.25-5.44Z" transform="translate(-375.83 -285.22)"/><path class="cls-8" d="M724.58,692.79a53.91,53.91,0,0,0,11.07-6.27c.6,17.42,2.39,37.76,7.38,53.8C739.12,743.85,725,752,725,752s-9.05-27.45-18.73-57.93C710.87,694.93,718,695.44,724.58,692.79Z" transform="translate(-375.83 -285.22)"/><path class="cls-1" d="M789.37,519.67s9.31,12.37,3,21.86c-5.36,8.05-52.72,55.86-67.06,70.27a10.76,10.76,0,0,0-2.91,9.81c3.79,18.28,15.37,74.91,15.76,86-3.33,2.37-27.27,7.62-31.91,6.77-10.55-33.17-21.85-90.27-23.07-99.17-2.36-17.08,41.69-77.61,50.13-90.43S773.49,497.06,789.37,519.67Z" transform="translate(-375.83 -285.22)"/><path class="cls-7" d="M737.37,689.56l1.27,18.56s-6.06,4.15-17.21,5.63c-13.58,1.8-17.17.53-17.17.53s-3.54-16.74-3.42-17.89C720.25,698.42,737.37,689.56,737.37,689.56Z" transform="translate(-375.83 -285.22)"/><path class="cls-4" d="M715.55,710a30.43,30.43,0,1,1-30.43,30.42A30.42,30.42,0,0,1,715.55,710Z" transform="translate(-375.83 -285.22)"/><path class="cls-5" d="M700.42,764.82a38.33,38.33,0,0,1,2.45-3.79c2.14-2.31,6.42-3.13,8.63-.48a6.75,6.75,0,0,1,1.27,4.76,13.3,13.3,0,0,1-6.12,9.93,19.62,19.62,0,0,1-11.54,2.89,1.9,1.9,0,0,1-1.3-.41,1.75,1.75,0,0,1-.35-.71,8,8,0,0,1,2.26-8C697.34,767.53,699.13,766.63,700.42,764.82Z" transform="translate(-375.83 -285.22)"/><path class="cls-3" d="M767.54,719.44A100.29,100.29,0,1,0,867.83,619.15,100.4,100.4,0,0,0,767.54,719.44Zm8.93,0a91.36,91.36,0,1,1,91.36,91.36A91.46,91.46,0,0,1,776.47,719.44Z" transform="translate(-375.83 -285.22)"/><path class="cls-4" d="M562.3,478.37l53.15,15.2a6,6,0,0,1-1.64,11.68,5.85,5.85,0,0,1-1.64-.23L559,489.82a6,6,0,1,1,3.27-11.45Z" transform="translate(-375.83 -285.22)"/><path class="cls-8" d="M579.83,464.61c3.41-2.31,11.33-5,20.63-7.8,2.2,3.82,4.43,7.62,6.43,11.51.52,1,1.07,2,1.6,3-16.42,4.87-30.67,9.62-32.7,13.05-4.67,7.88-1.27,15.12-9.27,13.47-4-.82-5.77-8.66-4.23-14.52S569.23,471.76,579.83,464.61Z" transform="translate(-375.83 -285.22)"/><path class="cls-9" d="M698.14,387.1l16.28,38.63a413.19,413.19,0,0,1-35.81,25.49c-17.91,11.08-87.43,26.07-87.43,26.07l-7.88-17.47s54.74-19.43,63.77-23C671.79,427,698.14,387.1,698.14,387.1Z" transform="translate(-375.83 -285.22)"/><path class="cls-4" d="M756.35,719.44A111.48,111.48,0,1,0,867.83,608,111.61,111.61,0,0,0,756.35,719.44Zm11.91,0A99.57,99.57,0,1,1,867.83,819,99.69,99.69,0,0,1,768.26,719.44Z" transform="translate(-375.83 -285.22)"/><circle class="cls-3" cx="492" cy="434.22" r="21"/><path class="cls-4" d="M867.83,710.24a9.2,9.2,0,1,1-9.2,9.2A9.2,9.2,0,0,1,867.83,710.24Z" transform="translate(-375.83 -285.22)"/><path class="cls-10" d="M671.27,332.35c1.71-4.76-.8-18.2,2.61-23.3s14.3-8.15,14.3-8.15c6.2-2.31,21.21-2.26,27.17,1.68,9.72,6.43,11.52,30.63,10.5,39.58-1.26,11.08,3.8,24.18,7,29.84,3.85,6.87,9.7,11.05,10.89,18.26-1.39,0-16,2.6-18.49,1.71-8.42-3.05-11.73,12.77-23.21,22.09-6.52,5.3-13.74,6.14-12.07-3.76,1.21-7.14,5.26-23.64,6.42-27.12,2.18-6.53-.39-17.6-2.94-21.42-10.22,2-13.66,1.77-17.22-1-2-1.5-3.6-15.42-3.6-15.42l-2.76-.32c-2.56-.2-3.15-1.5-2.87-2.91C667.43,339.81,670.32,335,671.27,332.35Z" transform="translate(-375.83 -285.22)"/><path class="cls-3" d="M761.24,303.62c5.9-6.29,11-15.95,28.28-15.64,12.52.23,17.82,9.38,26.12,10.14,10.74,1,19.1-12.46,39.15-12.89,21.61-.45,63,15.58,57.86,51.37s-38,49.43-53.67,48-38.71-21-44.05-24.73c-7.52-5.25-13.28-1-18.61-.17s-15.54-.88-22.54-10.58c-4.94-6.85-9.34-18.37-19.13-15.65s-17.42-4.76-20.62-8.61c-.37-.45-4.42-3-4.65-3.43,4.65-4.46,5.59-9.47,10.29-13.88C750.06,312.2,757.55,307.56,761.24,303.62Z" transform="translate(-375.83 -285.22)"/><path class="cls-3" d="M670.91,294.37c7.13-5,12.54-3.45,17.93-2.12s8.6.7,13.87-.28,19.75.85,26.08,14.38c3.23,6.91,2.33,21.18,1.92,21.26a149.5,149.5,0,0,1-4.62,21.44c-1.09.51-18.47-4.12-22-9.86-.57-.82-3.25-13.33-3.25-13.33s1-10.93-3.46-12.08-19.59,5-24.08,3.37S663.77,299.38,670.91,294.37Z" transform="translate(-375.83 -285.22)"/><path class="cls-5" d="M696.36,383.18c1.5-4.49.75-11.12-.69-16.07,16.14-1,29-5.85,31.93-8.3A62.86,62.86,0,0,0,732.82,372c3.85,6.87,9.7,11.05,10.89,18.26-1.39,0-16,2.6-18.49,1.71-8.42-3.05-11.73,12.77-23.21,22.09-6.52,5.3-13.74,6.14-12.07-3.76C691.15,403.16,695.2,386.66,696.36,383.18Z" transform="translate(-375.83 -285.22)"/><path class="cls-5" d="M641,636.17c14.13,42.76,31,85.8,67.24,101.21,18.9,8,104.84-9.33,158.1-23.19a6,6,0,1,1,3,11.52c-23.65,6.11-103.82,25.55-144.82,25.55-8.85,0-16.11-.87-20.93-2.91-44.27-18.81-62.1-72.75-73.89-108.44-12.38-37.45-60.69-75-61.17-75.33l7.26-9.44C577.87,556.76,627.46,595.28,641,636.17Z" transform="translate(-375.83 -285.22)"/><rect class="cls-5" x="649.76" y="649.65" width="187.66" height="8.93" transform="translate(-494.72 855.63) rotate(-70.78)"/><path class="cls-5" d="M728,698.12l-.54,8.92c-6.2-.38-61.07-4.09-77.26-18.14l5.86-6.74C667.83,692.38,712,697.15,728,698.12Z" transform="translate(-375.83 -285.22)"/><path class="cls-3" d="M715.72,742.22c1.15.78,2.56,0,3,3.18.61,4.33-7.69,13.66-12.11,16.24-5,2.9-4.69,5.11-8.34,10.38-4.31,6.23-18.17,10.44-25.4,10.39-5.7,0-8.86-.36-12.68-2.13-2.82-1.32-2.06-2.12-3-4.15,30.71-12.89,30.87-13.62,55.83-34C714.07,742.58,714.58,741.45,715.72,742.22Z" transform="translate(-375.83 -285.22)"/><polygon class="cls-6" points="281.13 484.33 281.13 484.33 281.13 484.33 281.13 484.33"/><path class="cls-7" d="M658,769.27h0c4.82-2.94,10.62-4.7,15.75-7,0,0,0,0,0,0,3.48-3.55,3.86-8.36,6.12-12.53s.36-7.42,11.64-5c6.66,1.43,9.5-4.23,10-12.82,0-.21,10.7,3.37,14.07,10.26-2.11,4.79-10.18,12.27-13,15.75-5.38,6.74-7.75,12.64-14.35,16.53-5.6,3.3-15.31,3.67-19.62,3.72-6.35.08-6.66-.46-11.44-2C656.25,772.91,656.06,770.18,658,769.27Z" transform="translate(-375.83 -285.22)"/><path class="cls-4" d="M758.71,552.07c8.52-1.69,25.18-7,34.59-7.33a15.33,15.33,0,0,1,10.35,3.08,10.48,10.48,0,0,1,1.76,1.7.86.86,0,0,0,.07.1,2.23,2.23,0,0,1,.19.24,6,6,0,0,1,.46.65c2.54,4.06,2.21,9.53-.18,13.69a20.59,20.59,0,0,1-11.07,8.69A43.63,43.63,0,0,1,780.72,575a33.69,33.69,0,0,1-6.66-.42c-3.15-.59-6.13-1.92-9.27-2.58-4.88-1-9.94-.44-14.93-.23s-10.24,0-14.55-2.57c-3.75-2.19-6-7.26-2.34-10.68C736,554.58,750.19,553.77,758.71,552.07Z" transform="translate(-375.83 -285.22)"/><path class="cls-10" d="M703,736.72c1.61,4.28-3.73,11.48-6,12.53-4.33,2-12.48-.43-14.21-4.63-3.54-11-12.82-33.85-21.53-59.09,9.89-3.37,21-4.06,30.76-13C693.23,683.4,700.51,716.71,703,736.72Z" transform="translate(-375.83 -285.22)"/><path class="cls-10" d="M717.84,390.73c11.79-1.71,19.31,6.23,20.68,19.58,1.53,14.82-3.13,22.64-11.32,24.31-9.24,1.9-18.42-1.3-22.33-12.47S706,392.44,717.84,390.73Z" transform="translate(-375.83 -285.22)"/><path class="cls-10" d="M605.66,478.57c10.05-7.89,62.11-29.62,66.82-34.95,7.3-8.25,35.28-43.79,45.62-47,8.79-2.75,24.14,2.88,21.68,16.8A18.89,18.89,0,0,1,733,424.6c-10,8.23-37.57,30.8-47,37.45-11.54,8.19-71.76,23-75.85,31.2s.51,13.75-8,13.75c-4.28,0-8.56-5.1-7.45-11.06S595.61,486.47,605.66,478.57Z" transform="translate(-375.83 -285.22)"/><rect class="cls-5" x="806.46" y="581.32" width="8.93" height="154.6" transform="translate(-609.44 355.59) rotate(-38.11)"/><path class="cls-7" d="M647.42,550.43C662.05,540,708.08,517.29,728.57,508s33.61-7,52.39-13.92c3.21.29,7.75-1.95,10.43.6a27.69,27.69,0,0,1,3,3.46c13.07,17.54,9,42.8-8.8,55.55a46.26,46.26,0,0,1-9.35,5.21c-24.87,10.26-58.8,17-91.69,27.55a8.21,8.21,0,0,0-5.6,9.33c5.51,29,17.49,86.79,19,101.35-11.49,10.76-22.61,11.43-33.11,9.92-3.87-11.21-34.15-111.24-35-116.16C627.85,580,629.52,563.22,647.42,550.43Z" transform="translate(-375.83 -285.22)"/><path class="cls-5" d="M733.68,373.74c14.63,11.64,45.71,97.24,74.22,138.68a7,7,0,0,1-4.84,10.9l-.28,0c-5,.3-10.17.35-15.08-1.06-3.64-1-7-2.83-10.51-4.31a65.46,65.46,0,0,0-42.51-2.83c-3.47,1-6.94,2.2-10.53,2.11a5,5,0,0,1-3.78-1.4c-.93-1.1-.94-2.68-.91-4.12.09-3.4.78-7.41.27-10.76-.49-3.14-2.29-5.69-3.84-8.53q-5.11-9.37-10.06-18.83c-5.18-9.85-9.82-20.29-15.72-29.73-14-25.13,5.89-59.54,5.89-59.54C721.6,383.27,733.68,373.74,733.68,373.74Z" transform="translate(-375.83 -285.22)"/><path class="cls-9" d="M728.79,425.78s-8.24,26.08-28.51,36.89h0q-2.21-4.41-4.5-8.77l0,0Z" transform="translate(-375.83 -285.22)"/><path class="cls-11" d="M700.92,698.44s-5.86,6.11-17.81,8.74c-14.56,3.2-18.61,2.31-18.61,2.31s-5.74-16.29-5.74-17.44c21.33,0,38.93-10.58,38.93-10.58Z" transform="translate(-375.83 -285.22)"/><path class="cls-10" d="M706.29,325.11c2.64,1.7,4,5.27,2.45,9.13s-5.19,6-8.11,4.86-3.65-7.31-2.09-11.17S703.38,323.24,706.29,325.11Z" transform="translate(-375.83 -285.22)"/><path class="cls-5" d="M670.82,441.56c8.87-6.37,28.41-53,43.6-53s23.18,4.92,23.71,22.79-42.61,49.38-58.67,55.86c-17.61,7.1-55.4,21.16-55.4,21.16l-9.93-17.47S657.88,455.44,670.82,441.56Z" transform="translate(-375.83 -285.22)"/><path class="cls-9" d="M742.14,307.52c4.46,3.35,5.58,16.12-2.26,21.07a7.27,7.27,0,0,1-7.71-.06c-.55-.32-1.35-.83-1.46-.92s.61-15.05-1.92-21.26C732,304.06,738,304.43,742.14,307.52Z" transform="translate(-375.83 -285.22)"/><path class="cls-7" d="M693,365.54c8.91-5.07,32-12.3,37.54-10.67s10,14.7,7.18,20.92c-2.47,5.42-38.1,14.71-43.31,14.71C689.7,390.5,686.05,369.47,693,365.54Z" transform="translate(-375.83 -285.22)"/><path class="cls-7" d="M730,372.57c12.35,3.73,19.61,4.38,30.52,1.79s29-4.39,46.55,9.49c18.34,14.45,27,12.21,33,10.95l1.61,14.7s-17.36,10.15-34.56-6.51-40.89-12.36-57-8.33-44.9-11.13-44.9-11.13S717.68,368.83,730,372.57Z" transform="translate(-375.83 -285.22)"/></svg>